<?xml version="1.0" encoding="utf-8"?>
<!-- Generator: Adobe Illustrator 25.4.1, SVG Export Plug-In . SVG Version: 6.00 Build 0)  -->
<svg version="1.1" id="Calque_1" xmlns="http://www.w3.org/2000/svg" xmlns:xlink="http://www.w3.org/1999/xlink" x="0px" y="0px"
	 viewBox="0 0 279.2 157.7" style="enable-background:new 0 0 279.2 157.7;" xml:space="preserve">
<style type="text/css">
	.st0{display:none;}
	.st1{display:inline;fill:none;stroke:#32747A;stroke-width:2;stroke-miterlimit:10;}
	.st2{display:inline;fill:none;stroke:#32747A;stroke-miterlimit:10;}
	.st3{fill:none;stroke:#329190;stroke-width:3;stroke-miterlimit:10;}
	.st4{fill:#329190;stroke:#329190;stroke-miterlimit:10;}
	.st5{fill:#FFBD36;stroke:#FFBD36;stroke-width:0.75;stroke-miterlimit:10;}
</style>
<g id="Calque_1_00000106831202414098159780000006621377714030166430_" class="st0">
</g>
<g id="Calque_4" class="st0">
	<path class="st1" d="M189.6,152.4l-87.7-7.7c0,0,8.5,29.9,47.4,32.4c0,0,32.4,4.6,48-24L189.6,152.4"/>
	<path class="st2" d="M101.9,194.9l84.4-0.1c0,0-10.5,29-48,28.2c0,0-31.3,1.8-43.9-28.1L101.9,194.9"/>
</g>
<g id="Calque_3">
	<path class="st3" d="M147.1,43.8c0,0-6.8,25.5-29.3,23.6S90.2,43.8,90.2,43.8"/>
	<path class="st3" d="M118.7,43.8l-11.5,9.1c0,0,3.2,6.2,10.6,2.7c0,0,4.5-3.5,7.4-1.9l10.6,8.1"/>
	<path class="st4" d="M112.9,61.8c0,0,5.5,5.8,7.3,5.7"/>
	<path class="st4" d="M118.6,60.2c0,0,7.4,7,8.5,6.2"/>
	<path class="st4" d="M131.7,64.6c-1,0.4-6-4.4-6-4.4"/>
	<g>
		<path class="st4" d="M72.3,113.6H68l-9.9-19H48v19h-3.8v-42h15.1c3.2,0,5.9,1.1,8.1,3.4c2.3,2.3,3.4,5,3.4,8.1
			c0,2.6-0.8,5-2.4,7.1c-1.6,2-3.6,3.4-6.1,4L72.3,113.6z M59.3,90.8c2.1,0,3.9-0.7,5.4-2.2s2.2-3.3,2.2-5.4s-0.7-3.9-2.2-5.4
			s-3.3-2.3-5.4-2.3H48v15.3H59.3L59.3,90.8z"/>
		<path class="st4" d="M96.5,71.6v3.9H78.9v15.2h13.9v3.9H78.9v15.3h17.6v3.9H75V71.7L96.5,71.6L96.5,71.6z"/>
		<path class="st4" d="M140,71.6v42h-3.8V80.9l-14.1,32.7h-4.2l-14.1-32.7v32.7h-3.9v-42h4l16,37.2L136,71.6H140z"/>
		<path class="st4" d="M149,113.6h-3.9V71.5h15.1c3.2,0,5.9,1.1,8.1,3.4c2.3,2.3,3.4,5,3.4,8.2s-1.1,5.9-3.4,8.1
			c-2.3,2.3-5,3.4-8.1,3.4h-11.3L149,113.6L149,113.6z M149,90.8h11.3c2.1,0,3.9-0.8,5.4-2.3s2.2-3.3,2.2-5.4s-0.7-4-2.2-5.5
			s-3.3-2.3-5.4-2.3H149V90.8z"/>
		<path class="st4" d="M173.8,71.3h3.9v42.3h-3.9V71.3z"/>
		<path class="st4" d="M185.5,71.6v38.2H205v3.9h-23.4V71.6H185.5z"/>
		<path class="st4" d="M212.3,73.2c0.2,1.1,0.2,2.1-0.1,3.1c-0.4,1.6-1.4,2.7-2.9,3.4l-0.8-1.1c0.7-0.5,1.2-1,1.4-1.8
			c-0.1,0-0.3,0-0.4,0c-0.8,0-1.5-0.3-2-0.8s-0.8-1.2-0.8-2s0.3-1.5,0.8-2s1.2-0.8,2-0.8c0.6,0,1.2,0.2,1.7,0.6
			C211.8,72.2,212.1,72.6,212.3,73.2z"/>
	</g>
	<g>
		<path class="st5" d="M220.3,100.2c-0.1-0.6,0-1.1,0.3-1.7c0.3-0.5,0.8-0.8,1.4-1c0.6-0.1,1.1,0,1.7,0.3c0.5,0.3,0.8,0.8,1,1.4
			c0.2,0.7,0.3,1.3,0.5,1.9c0.1,0.6,0.3,1.2,0.4,1.9s0.3,1.5,0.5,2.2c0.4,1.8,0.9,3.7,1.3,6c0.1,0.6,0,1.1-0.3,1.7
			c-0.3,0.5-0.8,0.8-1.4,1c-0.6,0.1-1.1,0-1.7-0.3c-0.5-0.3-0.8-0.8-1-1.4L220.3,100.2z M219,94.1c-0.1-0.6,0-1.1,0.3-1.7
			c0.3-0.5,0.8-0.8,1.4-1c0.6-0.1,1.1,0,1.7,0.3c0.5,0.3,0.8,0.8,1,1.4c0.1,0.6,0,1.1-0.3,1.7c-0.3,0.5-0.8,0.8-1.4,1
			c-0.6,0.1-1.1,0-1.7-0.3C219.4,95.2,219.1,94.7,219,94.1z"/>
		<path class="st5" d="M234,103.8c0.2,0.8,0.6,1.5,1.2,2s1.3,0.9,2,1c0.4,0,0.8,0.2,1.2,0.5s0.6,0.7,0.7,1.1c0.1,0.6,0,1.1-0.3,1.7
			c-0.3,0.5-0.8,0.8-1.4,1c-0.3,0.1-0.6,0.1-0.9,0c-1.7-0.3-3.1-1-4.3-2.1s-2-2.5-2.6-4.3l-2.4-10.3c-0.6,0.1-1.2,0-1.7-0.3
			s-0.9-0.8-1-1.4s0-1.2,0.3-1.7s0.8-0.9,1.4-1l-0.6-2.4c-0.1-0.6,0-1.1,0.3-1.7c0.3-0.5,0.8-0.8,1.4-1s1.1,0,1.7,0.3
			c0.5,0.3,0.8,0.8,1,1.4l0.6,2.4l2.2-0.5c0.6-0.1,1.1,0,1.6,0.3s0.8,0.8,1,1.4s0,1.2-0.3,1.7s-0.8,0.9-1.4,1l-2.2,0.5L234,103.8z"
			/>
	</g>
</g>
</svg>
